<?xml version="1.0" encoding="UTF-8"?>
<svg version="1.1" xmlns="http://www.w3.org/2000/svg" width="200" height="200">
<path d="M0 0 C0.40253269 10.9429258 -0.33073845 21.25765404 -2.59521484 31.984375 C-2.94944905 33.74828186 -3.21113243 35.53025898 -3.45703125 37.3125 C-5.59375806 47.67907138 -14.61122595 52.50660401 -22.69189453 58.30371094 C-26.03354038 60.75957674 -29.18334882 63.40623664 -32.3125 66.125 C-32.87195313 66.60864014 -33.43140625 67.09228027 -34.0078125 67.59057617 C-39.14011639 72.06264924 -44.13132646 76.68588198 -49.109375 81.328125 C-51.41259577 83.45704798 -53.74031662 85.52679468 -56.125 87.5625 C-62.29260766 92.89204632 -67.89672718 98.85034044 -73.61328125 104.65234375 C-75.52007664 106.52793136 -77.42911669 108.25246523 -79.5 109.9375 C-81.86036953 111.90532427 -83.7301889 113.84977961 -85.5625 116.3125 C-88 119 -88 119 -90.6875 120.046875 C-95.69336874 119.97603723 -97.92347587 117.27278435 -101.4375 113.9375 C-102.70691713 112.77982276 -103.9764479 111.62227013 -105.24609375 110.46484375 C-105.86468262 109.88976074 -106.48327148 109.31467773 -107.12060547 108.72216797 C-109.54020995 106.50498298 -112.03142176 104.38018141 -114.53930664 102.26391602 C-115.73841041 101.22634954 -116.87875203 100.12124797 -118 99 C-117.71926455 95.00125157 -116.54721446 93.06397496 -113.69140625 90.3359375 C-112.69463867 89.36527344 -112.69463867 89.36527344 -111.67773438 88.375 C-110.63069336 87.385 -110.63069336 87.385 -109.5625 86.375 C-108.18674306 85.05161635 -106.81296048 83.72617635 -105.44140625 82.3984375 C-104.52403687 81.52711182 -104.52403687 81.52711182 -103.58813477 80.63818359 C-101.79266006 78.88494661 -101.79266006 78.88494661 -100 76 C-99.34 76 -98.68 76 -98 76 C-97.79503906 75.47535156 -97.59007813 74.95070313 -97.37890625 74.41015625 C-95.39489234 70.94234724 -92.69488091 68.30749091 -89.9375 65.4375 C-85.0945316 60.31702818 -80.51837868 55.08133397 -76.109375 49.578125 C-73.98014854 46.9757371 -71.76550643 44.48424498 -69.5 42 C-62.78989647 34.61539733 -56.5978828 26.8295865 -50.5 18.9375 C-49.84946655 18.09674927 -49.84946655 18.09674927 -49.18579102 17.23901367 C-46.88808292 14.25156665 -46.88808292 14.25156665 -45 11 C-44.01 11 -43.02 11 -42 11 C-42 10.34 -42 9.68 -42 9 C-33.40455044 6.10718663 -24.81189685 3.58223999 -15.9375 1.6875 C-14.76127075 1.43081543 -14.76127075 1.43081543 -13.5612793 1.16894531 C-8.94553082 0.21964546 -4.71116718 -0.16892631 0 0 Z M-29 22 C-32.76796057 26.35593862 -32.76796057 26.35593862 -34.125 31.75 C-32.57141904 34.85716193 -31.24313912 35.77481411 -28 37 C-24.78683477 36.51237739 -24.78683477 36.51237739 -22 35 C-19.68462405 32.18291805 -19.68462405 32.18291805 -20.1875 29 C-21.02335522 25.91376533 -21.39194619 24.7697508 -24 23 C-26.60611077 22.27802838 -26.60611077 22.27802838 -29 22 Z M-7 34 C-6 36 -6 36 -6 36 Z M-8 37 C-7 39 -7 39 -7 39 Z M-9 41 C-8 43 -8 43 -8 43 Z " fill="#6B68D9" transform="translate(159,40)"/>
<path d="M0 0 C4.14781143 0.76042457 8.29281461 1.53523229 12.4375 2.3125 C13.60216797 2.52583984 14.76683594 2.73917969 15.96679688 2.95898438 C34.31506407 6.42189678 34.31506407 6.42189678 40.75 13.4375 C44.00621594 16.93650397 47.19176317 20.10272629 51 23 C50.54573928 28.2474945 48.87739183 31.03129546 45.625 35.125 C45.18816895 35.67760498 44.75133789 36.23020996 44.30126953 36.79956055 C39.49343675 42.79446001 34.28357242 48.42512796 29 54 C24.15203604 53.23101261 21.18623053 50.15260862 17.53125 47.078125 C15.15497858 45.03554937 15.15497858 45.03554937 12.96875 43.734375 C5.84134841 39.04529501 4.84760279 29.77697194 3 22 C2.69570068 20.77192627 2.69570068 20.77192627 2.38525391 19.51904297 C1.7822315 17.07873899 1.19832181 14.63494099 0.625 12.1875 C0.44493408 11.42920898 0.26486816 10.67091797 0.0793457 9.88964844 C-0.73429261 6.21268511 -1.09425044 3.59631719 0 0 Z " fill="#6C69DA" transform="translate(41,42)"/>
<path d="M0 0 C6.51052847 2.99241681 11.24983248 10.58402689 15.59375 16.01953125 C17.11967119 17.91458499 18.67996792 19.78247501 20.2734375 21.62109375 C21.01207031 22.48605469 21.75070313 23.35101563 22.51171875 24.2421875 C23.18460938 25.01304687 23.8575 25.78390625 24.55078125 26.578125 C25.88671875 28.8671875 25.88671875 28.8671875 25.828125 31.4140625 C24.72337111 34.29284027 23.46340099 35.66345256 21.19921875 37.7421875 C18.45007781 40.32441632 16.01318757 42.89036302 13.69921875 45.8671875 C11.26370679 48.80981975 11.26370679 48.80981975 8.01171875 49.3046875 C7.31046875 49.1603125 6.60921875 49.0159375 5.88671875 48.8671875 C5.55671875 47.8771875 5.22671875 46.8871875 4.88671875 45.8671875 C3.56803422 45.17199448 2.23017618 44.51320946 0.88671875 43.8671875 C-1.33560957 42.21105748 -3.51253888 40.53439603 -5.67578125 38.8046875 C-6.28695801 38.3202417 -6.89813477 37.8357959 -7.52783203 37.33666992 C-13.10379991 32.90502921 -18.62327791 28.40484333 -24.11328125 23.8671875 C-23.38566576 20.51054622 -22.58074428 19.23974811 -20.11328125 16.8671875 C-19.47132812 15.72443359 -19.47132812 15.72443359 -18.81640625 14.55859375 C-16.92969398 11.57706908 -14.87717246 9.57628276 -12.23828125 7.2421875 C-11.39523438 6.48679687 -10.5521875 5.73140625 -9.68359375 4.953125 C-3.32297328 -0.20883751 -3.32297328 -0.20883751 0 0 Z M-19.11328125 19.8671875 C-19.11328125 21.1871875 -19.11328125 22.5071875 -19.11328125 23.8671875 C-18.78328125 22.5471875 -18.45328125 21.2271875 -18.11328125 19.8671875 C-18.44328125 19.8671875 -18.77328125 19.8671875 -19.11328125 19.8671875 Z " fill="#6B68D9" transform="translate(134.11328125,109.1328125)"/>
<path d="M0 0 C0.99 0.33 1.98 0.66 3 1 C3 6.13230977 2.74269832 7.69241209 -0.5625 11.6875 C-1.29210937 12.57179688 -2.02171875 13.45609375 -2.7734375 14.3671875 C-7.34463711 19.77243055 -11.92362334 25.0572122 -17 30 C-19.48335462 32.42278499 -21.8319948 34.7899935 -24 37.5 C-27.23652807 41.54566008 -30.76104808 45.01703383 -35 48 C-35 47.01 -35 46.02 -35 45 C-36.98 45.495 -36.98 45.495 -39 46 C-38.195625 45.071875 -37.39125 44.14375 -36.5625 43.1875 C-33.91746639 40.10986744 -31.35863695 36.97227427 -28.8125 33.8125 C-25.50047853 29.74344506 -22.07063662 25.83936746 -18.5 22 C-13.41467145 16.53087307 -8.65814663 10.83882538 -4 5 C-3.25621094 4.07058594 -2.51242188 3.14117187 -1.74609375 2.18359375 C-0.88177734 1.10271484 -0.88177734 1.10271484 0 0 Z " fill="#9391D7" transform="translate(102,67)"/>
<path d="M0 0 C0.99 1.32 1.98 2.64 3 4 C0.09825292 8.05421401 -2.71513821 11.84870711 -6.4375 15.1875 C-7.283125 16.115625 -8.12875 17.04375 -9 18 C-8.72793135 19.6777567 -8.38499891 21.34450469 -8 23 C-9.08226036 26.12535675 -10.50417749 29.05329385 -12 32 C-12.99 32 -13.98 32 -15 32 C-16.37868281 30.37064759 -17.71274093 28.70250393 -19 27 C-19.66 26.67 -20.32 26.34 -21 26 C-20.48500692 22.01126924 -19.59087221 20.10567943 -16.69140625 17.3359375 C-15.69463867 16.36527344 -15.69463867 16.36527344 -14.67773438 15.375 C-13.97970703 14.715 -13.28167969 14.055 -12.5625 13.375 C-11.18674306 12.05161635 -9.81296048 10.72617635 -8.44140625 9.3984375 C-7.82982666 8.81755371 -7.21824707 8.23666992 -6.58813477 7.63818359 C-4.79266006 5.88494661 -4.79266006 5.88494661 -3 3 C-2.34 3 -1.68 3 -1 3 C-0.67 2.01 -0.34 1.02 0 0 Z " fill="#7E7BDB" transform="translate(62,113)"/>
<path d="M0 0 C2.97 0.495 2.97 0.495 6 1 C4.02 1.99 4.02 1.99 2 3 C2 3.66 2 4.32 2 5 C2.66 5 3.32 5 4 5 C5.71941416 9.49798745 6.24252217 13.32522631 6.375 18.125 C6.70116436 24.48520501 7.91847184 29.70455651 10.2578125 35.609375 C11 38 11 38 10 41 C4.52662867 32.61163204 2.9269349 22.0367858 0.6875 12.375 C0.50388916 11.60518799 0.32027832 10.83537598 0.13110352 10.04223633 C-0.70378426 6.31636924 -1.11871587 3.64809653 0 0 Z " fill="#8F8DD6" transform="translate(41,42)"/>
<path d="M0 0 C2.475 0.495 2.475 0.495 5 1 C4.33097656 1.66644531 3.66195312 2.33289063 2.97265625 3.01953125 C0.7580991 5.2325283 -1.43750904 7.46329719 -3.62890625 9.69921875 C-4.94001276 11.02873598 -6.25121247 12.35816131 -7.5625 13.6875 C-8.22185547 14.36361328 -8.88121094 15.03972656 -9.56054688 15.73632812 C-10.20185547 16.38408203 -10.84316406 17.03183594 -11.50390625 17.69921875 C-12.07955322 18.28533936 -12.6552002 18.87145996 -13.24829102 19.4753418 C-15.06541597 21.05693696 -16.80722923 22.02306458 -19 23 C-19.66 22.34 -20.32 21.68 -21 21 C-20.52578613 20.53102295 -20.05157227 20.0620459 -19.56298828 19.57885742 C-17.41436915 17.45103477 -15.26965202 15.31932077 -13.125 13.1875 C-12.37863281 12.44951172 -11.63226563 11.71152344 -10.86328125 10.95117188 C-10.14785156 10.23896484 -9.43242188 9.52675781 -8.6953125 8.79296875 C-8.03547363 8.1383667 -7.37563477 7.48376465 -6.69580078 6.80932617 C-4.81831708 4.9054354 -4.81831708 4.9054354 -3 2 C-2.01 2 -1.02 2 0 2 C0 1.34 0 0.68 0 0 Z " fill="#918CDD" transform="translate(103,121)"/>
<path d="M0 0 C0.99 0.33 1.98 0.66 3 1 C2.42087157 6.79128427 1.60921087 11.56957949 -2.80639648 15.68261719 C-5.01751461 17.45555719 -7.2710559 19.14478508 -9.5625 20.8125 C-10.34302734 21.39708984 -11.12355469 21.98167969 -11.92773438 22.58398438 C-17.56894841 26.78447421 -17.56894841 26.78447421 -20 28 C-19.72372657 24.51895483 -19.20390512 23.20598933 -16.70703125 20.68359375 C-15.75183594 19.94238281 -14.79664063 19.20117188 -13.8125 18.4375 C-12.8225 17.65890625 -11.8325 16.8803125 -10.8125 16.078125 C-8.6806113 14.50289613 -6.57483769 13.05795456 -4.3125 11.6875 C-3.549375 11.130625 -2.78625 10.57375 -2 10 C-2 8.68 -2 7.36 -2 6 C-1.34 6 -0.68 6 0 6 C-0.185625 5.195625 -0.37125 4.39125 -0.5625 3.5625 C-0.706875 2.716875 -0.85125 1.87125 -1 1 C-0.67 0.67 -0.34 0.34 0 0 Z M0 1 C1 3 1 3 1 3 Z " fill="#AFADE0" transform="translate(152,73)"/>
<path d="M0 0 C-1.36714052 5.01284859 -4.7277214 9.09773479 -9 12 C-12.8134116 11.67864509 -14.49565836 9.77266396 -17 7 C-15.68 6.67 -14.36 6.34 -13 6 C-13 5.01 -13 4.02 -13 3 C-8.65118303 0.58399057 -4.96195443 0 0 0 Z " fill="#7975D6" transform="translate(79,84)"/>
<path d="M0 0 C0.66 0 1.32 0 2 0 C2.75 2.1875 2.75 2.1875 3 5 C-0.33420586 10.12954748 -5.00659816 14.48612463 -10 18 C-10 17.01 -10 16.02 -10 15 C-11.32 15.33 -12.64 15.66 -14 16 C-2.28571429 2.28571429 -2.28571429 2.28571429 0 0 Z " fill="#9795D9" transform="translate(77,97)"/>
<path d="M0 0 C1.32 1.32 2.64 2.64 4 4 C2.59310776 5.96604172 1.17534751 7.92240796 -0.25 9.875 C-0.64574219 10.43058594 -1.04148437 10.98617187 -1.44921875 11.55859375 C-3.66678625 14.57593969 -5.43056157 16.70648791 -9 18 C-8.7215625 17.1028125 -8.7215625 17.1028125 -8.4375 16.1875 C-7.77906313 13.83591238 -7.77906313 13.83591238 -9 11 C-7.12890625 8.30078125 -7.12890625 8.30078125 -4.5625 5.3125 C-3.71816406 4.31863281 -2.87382813 3.32476562 -2.00390625 2.30078125 C-1.01197266 1.16189453 -1.01197266 1.16189453 0 0 Z " fill="#7D7BDA" transform="translate(112,55)"/>
<path d="M0 0 C2.7647844 1.18716887 4.59463565 2.90109626 6.796875 4.94140625 C7.59609375 5.67488281 8.3953125 6.40835938 9.21875 7.1640625 C9.82203125 7.72996094 10.4253125 8.29585937 11.046875 8.87890625 C10.056875 10.36390625 10.056875 10.36390625 9.046875 11.87890625 C10.366875 12.53890625 11.686875 13.19890625 13.046875 13.87890625 C11.396875 13.87890625 9.746875 13.87890625 8.046875 13.87890625 C7.716875 12.88890625 7.386875 11.89890625 7.046875 10.87890625 C5.73752188 10.16629371 4.39857706 9.50749497 3.046875 8.87890625 C1.43954519 7.70268145 -0.14337462 6.49253155 -1.703125 5.25390625 C-2.50234375 4.62226563 -3.3015625 3.990625 -4.125 3.33984375 C-4.72828125 2.85773438 -5.3315625 2.375625 -5.953125 1.87890625 C-3.84510848 0.59903908 -2.49456134 -0.1546628 0 0 Z " fill="#9E9AE0" transform="translate(131.953125,144.12109375)"/>
<path d="M0 0 C2.1862793 0.35302734 2.1862793 0.35302734 4 1 C3.125 2.02083333 2.25 3.04166667 1.375 4.0625 C0.83101562 4.69800781 0.28703125 5.33351563 -0.2734375 5.98828125 C-1.40020214 7.3011405 -2.53026715 8.61117646 -3.6640625 9.91796875 C-4.18742187 10.52253906 -4.71078125 11.12710938 -5.25 11.75 C-5.72953125 12.30171875 -6.2090625 12.8534375 -6.703125 13.421875 C-8.19268714 15.18100746 -8.19268714 15.18100746 -10 18 C-10.99 17.67 -11.98 17.34 -13 17 C-12.65473319 11.69275592 -9.79271144 9.15785182 -6.1875 5.625 C-5.65318359 5.06683594 -5.11886719 4.50867188 -4.56835938 3.93359375 C-2.98046875 2.3515625 -2.98046875 2.3515625 0 0 Z " fill="#7671CE" transform="translate(55,121)"/>
<path d="M0 0 C0.66 0.33 1.32 0.66 2 1 C1.50389225 5.31463406 0.27462809 7.1830397 -2.875 10.125 C-3.92300781 11.11886719 -3.92300781 11.11886719 -4.9921875 12.1328125 C-5.98605469 13.05707031 -5.98605469 13.05707031 -7 14 C-8.00445428 14.99552579 -9.00626941 15.99376965 -10 17 C-10.125 10.375 -10.125 10.375 -9 7 C-7.15234375 6.26953125 -7.15234375 6.26953125 -4.9375 5.8125 C-3.83728516 5.57466797 -3.83728516 5.57466797 -2.71484375 5.33203125 C-2.14894531 5.22246094 -1.58304688 5.11289063 -1 5 C-0.67 3.35 -0.34 1.7 0 0 Z " fill="#8785D9" transform="translate(158,137)"/>
<path d="M0 0 C0.33 0.66 0.66 1.32 1 2 C0.67 2.66 0.34 3.32 0 4 C0.99 3.67 1.98 3.34 3 3 C2.505 3.8353125 2.505 3.8353125 2 4.6875 C0.8690399 7.30284522 0.84337026 9.1806646 1 12 C1.66 12 2.32 12 3 12 C3.33 13.98 3.66 15.96 4 18 C0.05860922 16.33248852 -2.7892812 13.77289351 -6 11 C-5.42235003 7.6496302 -4.41423154 6.31766228 -2 4 C-0.82425289 1.90010348 -0.82425289 1.90010348 0 0 Z M-1 7 C-1 8.32 -1 9.64 -1 11 C-0.67 9.68 -0.34 8.36 0 7 C-0.33 7 -0.66 7 -1 7 Z " fill="#ACAADC" transform="translate(116,122)"/>
<path d="M0 0 C0.99 1.32 1.98 2.64 3 4 C-1.86001295 11.15672794 -7.81402692 17.01215417 -14 23 C-14.66 22.67 -15.32 22.34 -16 22 C-12.04 18.04 -8.08 14.08 -4 10 C-4.66 9.01 -5.32 8.02 -6 7 C-4.625 5 -4.625 5 -3 3 C-2.34 3 -1.68 3 -1 3 C-0.67 2.01 -0.34 1.02 0 0 Z " fill="#ADACE9" transform="translate(62,113)"/>
<path d="M0 0 C0.99 0.33 1.98 0.66 3 1 C3 6.26027858 2.6368885 7.82749844 -0.75 11.9375 C-1.79414062 13.21947266 -1.79414062 13.21947266 -2.859375 14.52734375 C-4.82031699 16.79244645 -6.85115586 18.91407247 -9 21 C-8.60146783 18.2102748 -8.15923859 17.14896513 -6.0625 15.1875 C-3.40373796 12.36760087 -2.86011008 9.72714368 -2 6 C-2.66 5.67 -3.32 5.34 -4 5 C-2.68 3.35 -1.36 1.7 0 0 Z " fill="#B2AFEB" transform="translate(102,67)"/>
<path d="M0 0 C0.33 0.66 0.66 1.32 1 2 C3.01669827 3.13350534 3.01669827 3.13350534 5 4 C2.40852998 7.88720503 0.37371778 7.75036635 -4 9 C-4.99 10.485 -4.99 10.485 -6 12 C-7.32 11.67 -8.64 11.34 -10 11 C-6.7 7.37 -3.4 3.74 0 0 Z " fill="#7571DE" transform="translate(79,103)"/>
<path d="M0 0 C0.05382106 2.62527189 0.09358313 5.24944713 0.125 7.875 C0.14175781 8.62136719 0.15851563 9.36773437 0.17578125 10.13671875 C0.1933959 12.09194461 0.10320189 14.04742021 0 16 C-0.66 16.66 -1.32 17.32 -2 18 C-2 13.05 -2 8.1 -2 3 C-4.31 3 -6.62 3 -9 3 C-9.99 2.34 -10.98 1.68 -12 1 C-7.94150823 0.01612321 -4.16468745 -0.03924323 0 0 Z " fill="#9492D7" transform="translate(159,40)"/>
<path d="M0 0 C2 3 2 3 1.875 5.4375 C0.7991315 8.58825776 -0.37807246 9.96072302 -3 12 C-5.75 12.75 -5.75 12.75 -8 13 C-6.02 10.69 -4.04 8.38 -2 6 C-2.66 4.35 -3.32 2.7 -4 1 C-2 0 -2 0 0 0 Z " fill="#7C7AD3" transform="translate(67,112)"/>
<path d="M0 0 C2.00720923 0.28674418 4.0085944 0.61866701 6 1 C4.02 1.99 4.02 1.99 2 3 C2 3.66 2 4.32 2 5 C2.66 5 3.32 5 4 5 C5.42258812 8.82320557 6.24042276 11.91281305 6 16 C5 14 4 12 3 10 C2.01 11.485 2.01 11.485 1 13 C0.63901937 11.02206479 0.28638652 9.04260427 -0.0625 7.0625 C-0.25972656 5.96035156 -0.45695312 4.85820313 -0.66015625 3.72265625 C-0.77230469 2.82417969 -0.88445313 1.92570312 -1 1 C-0.67 0.67 -0.34 0.34 0 0 Z " fill="#9E9BE0" transform="translate(41,42)"/>
<path d="M0 0 C0.33 0 0.66 0 1 0 C0.67 3.3 0.34 6.6 0 10 C-1.32 10 -2.64 10 -4 10 C-4.10957031 10.62648438 -4.21914062 11.25296875 -4.33203125 11.8984375 C-4.49058594 12.71570313 -4.64914063 13.53296875 -4.8125 14.375 C-4.96332031 15.18710938 -5.11414063 15.99921875 -5.26953125 16.8359375 C-6 19 -6 19 -9 21 C-9 19.68 -9 18.36 -9 17 C-8.34 17 -7.68 17 -7 17 C-6.97421875 16.38511719 -6.9484375 15.77023438 -6.921875 15.13671875 C-6.44954683 8.4060423 -6.44954683 8.4060423 -4.0625 6.25 C-3.381875 5.8375 -2.70125 5.425 -2 5 C-0.73152315 2.41501488 -0.73152315 2.41501488 0 0 Z " fill="#7F7CD0" transform="translate(156,64)"/>
<path d="M0 0 C2 0.75 2 0.75 4 3.75 C3.01 3.75 2.02 3.75 1 3.75 C1 3.09 1 2.43 1 1.75 C-2.04602544 2.5085046 -2.04602544 2.5085046 -3.8125 4.625 C-6.34635501 7.08645915 -8.74465009 8.40539895 -12 9.75 C-12.66 9.42 -13.32 9.09 -14 8.75 C-12.37680325 7.43527053 -10.751385 6.12328338 -9.125 4.8125 C-8.22007813 4.08160156 -7.31515625 3.35070312 -6.3828125 2.59765625 C-2.61174329 -0.32646791 -2.61174329 -0.32646791 0 0 Z " fill="#9491D7" transform="translate(134,109.25)"/>
<path d="M0 0 C0 3.38877956 -0.93396795 5.80190384 -2 9 C-2 9.99 -2 10.98 -2 12 C-4.64 12 -7.28 12 -10 12 C-3.84965831 3.55353075 -3.84965831 3.55353075 0 0 Z " fill="#7875D6" transform="translate(90,91)"/>
<path d="M0 0 C0.66 1.32 1.32 2.64 2 4 C2.66 3.67 3.32 3.34 4 3 C2.64531705 7.87685861 0.28324091 9.48592381 -4 12 C-3.7215625 11.1028125 -3.7215625 11.1028125 -3.4375 10.1875 C-2.77906313 7.83591238 -2.77906313 7.83591238 -4 5 C-2.0625 2.3125 -2.0625 2.3125 0 0 Z " fill="#908EDB" transform="translate(107,61)"/>
<path d="M0 0 C7.38461538 0.36923077 7.38461538 0.36923077 10.5 3.5625 C10.995 4.366875 11.49 5.17125 12 6 C11.34 6 10.68 6 10 6 C9.67 6.66 9.34 7.32 9 8 C8.67 7.01 8.34 6.02 8 5 C6.12612784 4.19787372 6.12612784 4.19787372 3.9375 3.8125 C3.20402344 3.65394531 2.47054687 3.49539062 1.71484375 3.33203125 C1.14894531 3.22246094 0.58304687 3.11289062 0 3 C0 2.01 0 1.02 0 0 Z " fill="#9D9BDB" transform="translate(67,48)"/>
<path d="M0 0 C0.60328125 0.34804687 1.2065625 0.69609375 1.828125 1.0546875 C1.10496094 1.66957031 1.10496094 1.66957031 0.3671875 2.296875 C-0.26445313 2.83570313 -0.89609375 3.37453125 -1.546875 3.9296875 C-2.17335938 4.46335938 -2.79984375 4.99703125 -3.4453125 5.546875 C-4.73024151 6.66900757 -5.96559475 7.84840725 -7.171875 9.0546875 C-6.98625 8.2915625 -6.800625 7.5284375 -6.609375 6.7421875 C-5.94368327 3.96501375 -5.94368327 3.96501375 -7.171875 1.0546875 C-2.70649038 -1.17800481 -2.70649038 -1.17800481 0 0 Z " fill="#8B87DA" transform="translate(81.171875,145.9453125)"/>
<path d="M0 0 C0.33 1.32 0.66 2.64 1 4 C0.01 4.66 -0.98 5.32 -2 6 C-7.875 3.25 -7.875 3.25 -9 1 C-6.04335481 -0.4783226 -3.25770263 -0.06032783 0 0 Z " fill="#6F6BD7" transform="translate(130,140)"/>
<path d="M0 0 C4.29 0.33 8.58 0.66 13 1 C11.68 2.32 10.36 3.64 9 5 C6.5 5 6.5 5 4 4 C2.68 2.68 1.36 1.36 0 0 Z " fill="#928FD8" transform="translate(60,155)"/>
<path d="M0 0 C1.65 0.33 3.3 0.66 5 1 C2.33333333 3.66666667 -0.33333333 6.33333333 -3 9 C-3.99 8.67 -4.98 8.34 -6 8 C-5.34 7.01 -4.68 6.02 -4 5 C-3.67 4.01 -3.34 3.02 -3 2 C-2.01 2 -1.02 2 0 2 C0 1.34 0 0.68 0 0 Z " fill="#8985D7" transform="translate(103,121)"/>
<path d="M0 0 C-0.33 1.65 -0.66 3.3 -1 5 C-4.79588866 4.45773019 -6.47211993 2.79872437 -9 0 C-5.93109813 -1.53445094 -3.29905734 -0.54984289 0 0 Z " fill="#8783D9" transform="translate(71,91)"/>
<path d="M0 0 C0.66 0.33 1.32 0.66 2 1 C1.34 1.66 0.68 2.32 0 3 C0 3.99 0 4.98 0 6 C-1.82193842 7.9249647 -3.89235283 9.37535531 -6 11 C-6.71484375 9.234375 -6.71484375 9.234375 -7 7 C-5.56640625 5.078125 -5.56640625 5.078125 -3.5625 3.25 C-2.90378906 2.63640625 -2.24507813 2.0228125 -1.56640625 1.390625 C-1.04949219 0.93171875 -0.53257813 0.4728125 0 0 Z " fill="#9F9AE9" transform="translate(98,126)"/>
<path d="M0 0 C2.44553939 3.66830909 2.95607424 6.63377915 3 11 C2.0625 13.5 2.0625 13.5 1 15 C-0.58455205 10.14730934 -1.31046812 6.1744687 -1 1 C-0.67 0.67 -0.34 0.34 0 0 Z " fill="#807CD1" transform="translate(44,51)"/>
<path d="M0 0 C1.98 0.66 3.96 1.32 6 2 C6 1.34 6 0.68 6 0 C6.66 0 7.32 0 8 0 C6.50902342 3.7952131 4.24299151 5.61042731 1 8 C0.67 5.36 0.34 2.72 0 0 Z " fill="#8381D7" transform="translate(107,114)"/>
<path d="M0 0 C0 3 0 3 -1 5 C-0.34 5.33 0.32 5.66 1 6 C-1.475 7.485 -1.475 7.485 -4 9 C-4.66 8.34 -5.32 7.68 -6 7 C-5.67 6.34 -5.34 5.68 -5 5 C-5.66 4.67 -6.32 4.34 -7 4 C-3.25 1 -3.25 1 -1 1 C-0.67 0.67 -0.34 0.34 0 0 Z " fill="#A9A7E7" transform="translate(84,92)"/>
<path d="M0 0 C3.28788824 3.11016455 5.83735988 6.01618925 8 10 C7.01 10.495 7.01 10.495 6 11 C6 10.34 6 9.68 6 9 C4.02 8.34 2.04 7.68 0 7 C0 4.69 0 2.38 0 0 Z " fill="#8986DA" transform="translate(150,127)"/>
<path d="M0 0 C1.32 0.33 2.64 0.66 4 1 C3.06725891 2.12894876 2.12859878 3.25300876 1.1875 4.375 C0.66542969 5.00148438 0.14335938 5.62796875 -0.39453125 6.2734375 C-2 8 -2 8 -5 10 C-4.38545304 6.00544473 -2.29353263 3.25533664 0 0 Z " fill="#7671CB" transform="translate(55,121)"/>
<path d="M0 0 C0.33 0 0.66 0 1 0 C1 1.65 1 3.3 1 5 C1.66 5 2.32 5 3 5 C3.33 6.98 3.66 8.96 4 11 C1.13302508 9.71480435 -0.97607712 8.42870746 -3 6 C-3 5.34 -3 4.68 -3 4 C-2.01 4 -1.02 4 0 4 C0 2.68 0 1.36 0 0 Z " fill="#A29EDF" transform="translate(116,129)"/>
<path d="M0 0 C2.31 0 4.62 0 7 0 C4.42215154 2.64752004 2.08351902 4.94432065 -1 7 C-0.67 4.69 -0.34 2.38 0 0 Z " fill="#928EDB" transform="translate(118,107)"/>
<path d="M0 0 C0.99 0.99 1.98 1.98 3 3 C2.67 3.99 2.34 4.98 2 6 C0.35 6.33 -1.3 6.66 -3 7 C-1.125 1.125 -1.125 1.125 0 0 Z " fill="#7F7AD6" transform="translate(119,119)"/>
<path d="M0 0 C0.33 1.65 0.66 3.3 1 5 C-0.65 5.33 -2.3 5.66 -4 6 C-4.33 5.01 -4.66 4.02 -5 3 C-2.25 0 -2.25 0 0 0 Z " fill="#8985D1" transform="translate(79,97)"/>
<path d="M0 0 C0 4 0 4 -1 7 C-2.65 5.35 -4.3 3.7 -6 2 C-3 0 -3 0 0 0 Z " fill="#8F8ADE" transform="translate(62,84)"/>
<path d="M0 0 C2.475 0.99 2.475 0.99 5 2 C3.8125 3.5625 3.8125 3.5625 2 5 C-0.6875 4.6875 -0.6875 4.6875 -3 4 C-2.01 2.68 -1.02 1.36 0 0 Z " fill="#9C9BE0" transform="translate(73,101)"/>
<path d="M0 0 C0.33 0.66 0.66 1.32 1 2 C-0.4375 4.625 -0.4375 4.625 -2 7 C-3.32 6.67 -4.64 6.34 -6 6 C-4.02 4.02 -2.04 2.04 0 0 Z " fill="#7F7ED4" transform="translate(75,108)"/>
<path d="M0 0 C3.73584906 1.47169811 3.73584906 1.47169811 5 4 C4.01 4.33 3.02 4.66 2 5 C0.68 3.68 -0.64 2.36 -2 1 C-1.34 0.67 -0.68 0.34 0 0 Z " fill="#8A87DC" transform="translate(123,140)"/>
<path d="M0 0 C0 3.16880694 -0.2058242 4.43689172 -2 7 C-4.625 7.75 -4.625 7.75 -7 8 C-6.02133662 6.85373678 -5.04205413 5.70800212 -4.0625 4.5625 C-3.51722656 3.92441406 -2.97195312 3.28632812 -2.41015625 2.62890625 C-1.63204305 1.73008851 -0.84063472 0.84063472 0 0 Z " fill="#9490D9" transform="translate(52,124)"/>
<path d="M0 0 C1.32 0 2.64 0 4 0 C4 0.66 4 1.32 4 2 C2.03852126 3.38938077 0.03833424 4.7260411 -2 6 C-1.125 1.125 -1.125 1.125 0 0 Z " fill="#9490DB" transform="translate(134,95)"/>
<path d="M0 0 C2 1.8125 2 1.8125 4 4 C4 4.99 4 5.98 4 7 C2.0625 6.25 2.0625 6.25 0 5 C-0.8125 2.9375 -0.8125 2.9375 -1 1 C-0.67 0.67 -0.34 0.34 0 0 Z " fill="#8D89D5" transform="translate(131,145)"/>
<path d="M0 0 C0.33 1.32 0.66 2.64 1 4 C0.01 4.66 -0.98 5.32 -2 6 C-2.99 5.67 -3.98 5.34 -5 5 C-3.35 3.35 -1.7 1.7 0 0 Z " fill="#A3A0D3" transform="translate(150,83)"/>
<path d="M0 0 C0.66 0 1.32 0 2 0 C2 1.98 2 3.96 2 6 C0.68 6.33 -0.64 6.66 -2 7 C-1.34 4.69 -0.68 2.38 0 0 Z " fill="#807DD0" transform="translate(139,68)"/>
<path d="M0 0 C2.97 0 5.94 0 9 0 C9 0.33 9 0.66 9 1 C7.35 1 5.7 1 4 1 C3.67 2.32 3.34 3.64 3 5 C3 4.34 3 3.68 3 3 C2.34 3 1.68 3 1 3 C0.67 2.01 0.34 1.02 0 0 Z " fill="#7F7BD7" transform="translate(42,44)"/>
</svg>
